<svg width="34" height="33" viewBox="0 0 34 33" fill="none" xmlns="http://www.w3.org/2000/svg">
<path d="M26.625 4.125H7.375C5.85622 4.125 4.625 5.35622 4.625 6.875V26.125C4.625 27.6438 5.85622 28.875 7.375 28.875H26.625C28.1438 28.875 29.375 27.6438 29.375 26.125V6.875C29.375 5.35622 28.1438 4.125 26.625 4.125Z" stroke="#0064FF" stroke-width="3" stroke-linecap="round" stroke-linejoin="round"/>
<path d="M12.1875 13.75C13.3266 13.75 14.25 12.8266 14.25 11.6875C14.25 10.5484 13.3266 9.625 12.1875 9.625C11.0484 9.625 10.125 10.5484 10.125 11.6875C10.125 12.8266 11.0484 13.75 12.1875 13.75Z" stroke="#0064FF" stroke-width="3" stroke-linecap="round" stroke-linejoin="round"/>
<path d="M29.375 20.625L22.5 13.75L7.375 28.875" stroke="#0064FF" stroke-width="3" stroke-linecap="round" stroke-linejoin="round"/>
</svg>
