<svg width="33" height="33" viewBox="0 0 33 33" fill="none" xmlns="http://www.w3.org/2000/svg">
<path d="M12.5912 28.5607V24.3439C12.5911 23.2714 13.4655 22.3999 14.5489 22.3927H18.5172C19.6058 22.3927 20.4882 23.2663 20.4882 24.3439V28.5738C20.4879 29.4844 21.2221 30.2287 22.1417 30.25H24.7872C27.4245 30.25 29.5625 28.1335 29.5625 25.5225V13.527C29.5484 12.4999 29.0613 11.5354 28.2397 10.9079L19.1919 3.69229C17.6068 2.4359 15.3535 2.4359 13.7684 3.69229L4.76028 10.921C3.93561 11.5459 3.44766 12.512 3.4375 13.5401V25.5225C3.4375 28.1335 5.57545 30.25 8.21275 30.25H10.8583C11.8007 30.25 12.5647 29.4937 12.5647 28.5607" stroke="#0064FF" stroke-width="3" stroke-linecap="round" stroke-linejoin="round"/>
</svg>
