<svg width="100" height="100" viewBox="0 0 100 100" fill="none" xmlns="http://www.w3.org/2000/svg">
<rect width="100" height="100" fill="white"/>
<path d="M27.8 62.8H32.77C34.2633 62.8 35.3133 62.4967 35.92 61.89C36.5733 61.2367 36.9 60.1633 36.9 58.67V37.32C36.9 35.8267 36.5733 34.7767 35.92 34.17C35.3133 33.5167 34.2633 33.19 32.77 33.19H27.8C26.3067 33.19 25.2567 33.5167 24.65 34.17C24.0433 34.7767 23.74 35.8267 23.74 37.32V58.67C23.74 60.1633 24.0433 61.2367 24.65 61.89C25.2567 62.4967 26.3067 62.8 27.8 62.8ZM34.24 70.5H26.4C22.7133 70.5 19.8667 69.52 17.86 67.56C15.8533 65.6 14.85 62.7767 14.85 59.09V36.9C14.85 33.2133 15.8533 30.39 17.86 28.43C19.8667 26.47 22.7133 25.49 26.4 25.49H34.24C37.9267 25.49 40.7733 26.47 42.78 28.43C44.7867 30.39 45.79 33.2133 45.79 36.9V59.09C45.79 62.7767 44.7867 65.6 42.78 67.56C40.7733 69.52 37.9267 70.5 34.24 70.5Z" fill="#848688"/>
<path d="M64.21 63.08H72.05C73.59 63.08 74.6867 62.7767 75.34 62.17C76.04 61.5167 76.39 60.4667 76.39 59.02V54.96C76.39 53.5133 76.04 52.4867 75.34 51.88C74.64 51.2733 73.4967 50.97 71.91 50.97H64.21C63.6967 50.97 63.44 51.2267 63.44 51.74V62.31C63.44 62.8233 63.6967 63.08 64.21 63.08ZM64.21 43.76H71.35C72.8433 43.76 73.94 43.4567 74.64 42.85C75.34 42.1967 75.69 41.1467 75.69 39.7V36.97C75.69 35.5233 75.34 34.4967 74.64 33.89C73.9867 33.2367 72.9133 32.91 71.42 32.91H64.21C63.6967 32.91 63.44 33.1667 63.44 33.68V42.99C63.44 43.5033 63.6967 43.76 64.21 43.76ZM54.55 69.03V26.96C54.55 25.98 55.04 25.49 56.02 25.49H72.82C76.5067 25.49 79.3533 26.47 81.36 28.43C83.3667 30.39 84.37 33.19 84.37 36.83V39.7C84.37 43.6667 82.5267 46.2333 78.84 47.4C80.7067 47.68 82.2 48.45 83.32 49.71C84.44 50.9233 85 52.6733 85 54.96V59.16C85 62.8 83.9967 65.6 81.99 67.56C79.9833 69.52 77.16 70.5 73.52 70.5H56.02C55.04 70.5 54.55 70.01 54.55 69.03Z" fill="#4D70B5"/>
</svg>
