<svg width="100" height="100" viewBox="0 0 100 100" fill="none" xmlns="http://www.w3.org/2000/svg">
<rect width="100" height="100" fill="white"/>
<path d="M34 50.7934H37.55C38.6167 50.7934 39.3667 50.5767 39.8 50.1434C40.2667 49.6767 40.5 48.9101 40.5 47.8434V32.5934C40.5 31.5267 40.2667 30.7767 39.8 30.3434C39.3667 29.8767 38.6167 29.6434 37.55 29.6434H34C32.9333 29.6434 32.1833 29.8767 31.75 30.3434C31.3167 30.7767 31.1 31.5267 31.1 32.5934V47.8434C31.1 48.9101 31.3167 49.6767 31.75 50.1434C32.1833 50.5767 32.9333 50.7934 34 50.7934ZM38.6 56.2934H33C30.3667 56.2934 28.3333 55.5934 26.9 54.1934C25.4667 52.7934 24.75 50.7767 24.75 48.1434V32.2934C24.75 29.6601 25.4667 27.6434 26.9 26.2434C28.3333 24.8434 30.3667 24.1434 33 24.1434H38.6C41.2333 24.1434 43.2667 24.8434 44.7 26.2434C46.1333 27.6434 46.85 29.6601 46.85 32.2934V48.1434C46.85 50.7767 46.1333 52.7934 44.7 54.1934C43.2667 55.5934 41.2333 56.2934 38.6 56.2934Z" fill="#848688"/>
<path d="M60.15 50.9934H65.75C66.85 50.9934 67.6333 50.7767 68.1 50.3434C68.6 49.8767 68.85 49.1267 68.85 48.0934V45.1934C68.85 44.1601 68.6 43.4267 68.1 42.9934C67.6 42.5601 66.7833 42.3434 65.65 42.3434H60.15C59.7833 42.3434 59.6 42.5267 59.6 42.8934V50.4434C59.6 50.8101 59.7833 50.9934 60.15 50.9934ZM60.15 37.1934H65.25C66.3167 37.1934 67.1 36.9767 67.6 36.5434C68.1 36.0767 68.35 35.3267 68.35 34.2934V32.3434C68.35 31.3101 68.1 30.5767 67.6 30.1434C67.1333 29.6767 66.3667 29.4434 65.3 29.4434H60.15C59.7833 29.4434 59.6 29.6267 59.6 29.9934V36.6434C59.6 37.0101 59.7833 37.1934 60.15 37.1934ZM53.25 55.2434V25.1934C53.25 24.4934 53.6 24.1434 54.3 24.1434H66.3C68.9333 24.1434 70.9667 24.8434 72.4 26.2434C73.8333 27.6434 74.55 29.6434 74.55 32.2434V34.2934C74.55 37.1267 73.2333 38.9601 70.6 39.7934C71.9333 39.9934 73 40.5434 73.8 41.4434C74.6 42.3101 75 43.5601 75 45.1934V48.1934C75 50.7934 74.2833 52.7934 72.85 54.1934C71.4167 55.5934 69.4 56.2934 66.8 56.2934H54.3C53.6 56.2934 53.25 55.9434 53.25 55.2434Z" fill="#4D70B5"/>
<path d="M10 68.2482C10 68.2482 14.2592 73.4897 19.5105 73.4896C23.4266 73.4896 30.5128 67.1993 35.3613 67.2952C41.7447 67.4214 45.5176 72.8241 50.4662 73.4896C54.0093 73.9661 58.8484 67.4105 64.8252 67.2952C70.1904 67.1917 72.517 71.5553 77.8788 71.8218C82.8751 72.0701 90 68.2481 90 68.2481" stroke="#B2B2B5" stroke-width="5" stroke-linecap="round"/>
<path d="M10 79.4649C10 79.4649 14.2394 84.6821 19.4664 84.682C23.3643 84.6819 30.4176 78.4209 35.2436 78.5163C41.5974 78.6419 45.3528 84.0196 50.2784 84.682C53.8051 85.1563 58.6218 78.631 64.5708 78.5163C69.9111 78.4133 72.2269 82.5195 77.5638 82.7848C82.5369 83.032 90 80.4134 90 80.4134" stroke="#B2B2B5" stroke-width="5" stroke-linecap="round"/>
</svg>
