<svg width="273" height="94" viewBox="0 0 273 94" fill="none" xmlns="http://www.w3.org/2000/svg">
<path d="M61.5 91.0001L61.5 88.5001L61.5 91.0001ZM104 78.0001L103.961 80.4998L104 78.0001ZM144.5 91.0001L144.238 93.4864L144.5 91.0001ZM183 78.0001L183.038 80.4999L183 78.0001ZM218 87L217.903 89.4981L218 87ZM252.162 84.4109C253.493 84.0452 254.276 82.6695 253.911 81.3381C253.545 80.0067 252.169 79.2238 250.838 79.5894L252.162 84.4109ZM36 80.0001C34.2656 81.8007 34.2662 81.8012 34.2668 81.8019C34.2671 81.8021 34.2678 81.8028 34.2683 81.8033C34.2694 81.8043 34.2706 81.8055 34.2721 81.8069C34.2749 81.8096 34.2785 81.813 34.2827 81.8171C34.2912 81.8252 34.3025 81.8359 34.3166 81.8492C34.3447 81.8758 34.3839 81.9125 34.4339 81.9587C34.5338 82.0512 34.6769 82.1816 34.8611 82.3447C35.2293 82.6707 35.7626 83.1277 36.4438 83.672C37.804 84.7589 39.7655 86.203 42.1902 87.6478C47.0045 90.5166 53.832 93.5003 61.5 93.5001L61.5 88.5001C55.0878 88.5002 49.1654 85.9839 44.7497 83.3526C42.5594 82.0474 40.7859 80.7414 39.565 79.7658C38.9555 79.2789 38.4866 78.8765 38.1753 78.6009C38.0198 78.4632 37.9038 78.3573 37.8295 78.2886C37.7924 78.2543 37.7657 78.2293 37.7498 78.2142C37.7418 78.2067 37.7365 78.2016 37.7339 78.1992C37.7326 78.1979 37.732 78.1973 37.7321 78.1974C37.7321 78.1974 37.7323 78.1976 37.7327 78.198C37.7329 78.1982 37.7333 78.1986 37.7334 78.1987C37.7339 78.1991 37.7344 78.1996 36 80.0001ZM61.5 93.5001C64.5728 93.5001 68.0642 92.55 71.5821 91.2952C75.133 90.0287 78.9887 88.3451 82.7924 86.7246C86.6392 85.0857 90.4642 83.4971 94.1145 82.3272C97.7809 81.1522 101.107 80.4557 103.961 80.4998L104.039 75.5004C100.393 75.444 96.4691 76.3222 92.5886 77.5658C88.692 78.8145 84.6733 80.4884 80.8326 82.1247C76.9488 83.7793 73.2733 85.3835 69.9023 86.5858C66.4983 87.8 63.6772 88.5001 61.5 88.5001L61.5 93.5001ZM103.961 80.4998C111.949 80.6234 118.346 83.317 124.609 86.3288C130.741 89.2772 137.064 92.7312 144.238 93.4864L144.762 88.5139C138.668 87.8724 133.298 84.9589 126.776 81.8226C120.385 78.7498 113.167 75.6417 104.039 75.5004L103.961 80.4998ZM144.238 93.4864C147.234 93.8017 150.292 92.9419 153.221 91.7368C156.157 90.5291 159.309 88.82 162.456 87.1841C168.912 83.8282 175.683 80.6109 183.038 80.4999L182.962 75.5004C174.292 75.6313 166.563 79.414 160.15 82.7477C156.863 84.4565 153.988 86.0146 151.319 87.1128C148.643 88.2136 146.516 88.6985 144.762 88.5139L144.238 93.4864ZM183.038 80.4999C189.664 80.3998 194.402 82.3158 199.519 84.5071C204.644 86.7013 210.194 89.1982 217.903 89.4981L218.097 84.5019C211.43 84.2425 206.673 82.1309 201.488 79.9107C196.296 77.6876 190.721 75.3833 182.962 75.5004L183.038 80.4999ZM217.903 89.4981C224.906 89.7705 233.518 88.471 240.255 87.1487C243.65 86.4824 246.619 85.7999 248.74 85.2838C249.802 85.0256 250.652 84.8087 251.24 84.6557C251.534 84.5792 251.762 84.5187 251.918 84.4769C251.996 84.456 252.055 84.4399 252.096 84.4287C252.117 84.4232 252.133 84.4189 252.144 84.4159C252.149 84.4144 252.153 84.4132 252.157 84.4124C252.158 84.412 252.159 84.4116 252.16 84.4114C252.161 84.4113 252.161 84.4111 252.161 84.4111C252.162 84.411 252.162 84.4109 251.5 82.0001C250.838 79.5894 250.838 79.5894 250.838 79.5893C250.838 79.5894 250.838 79.5894 250.838 79.5894C250.838 79.5895 250.837 79.5896 250.836 79.5899C250.834 79.5904 250.831 79.5912 250.827 79.5924C250.819 79.5947 250.805 79.5983 250.787 79.6032C250.751 79.6129 250.697 79.6277 250.624 79.6471C250.479 79.686 250.262 79.7436 249.98 79.817C249.416 79.9639 248.591 80.1743 247.559 80.4255C245.492 80.9283 242.598 81.5935 239.292 82.2423C232.628 83.5502 224.49 84.7506 218.097 84.5019L217.903 89.4981Z" fill="white"/>
<path d="M62.5 79.0001L62.5 76.5001L62.5 79.0001ZM105 66.0001L104.961 68.4998L105 66.0001ZM145.5 79.0001L145.238 81.4864L145.5 79.0001ZM184 66.0001L184.038 68.4999L184 66.0001ZM219 75.5L218.903 77.9981L219 75.5ZM252.468 70.3051C253.741 69.7705 254.34 68.3052 253.805 67.0322C253.271 65.7591 251.805 65.1604 250.532 65.6949L252.468 70.3051ZM37 68.0001C35.2656 69.8007 35.2662 69.8013 35.2668 69.8019C35.2671 69.8021 35.2678 69.8028 35.2683 69.8033C35.2694 69.8043 35.2706 69.8055 35.2721 69.8069C35.2749 69.8096 35.2785 69.813 35.2827 69.8171C35.2912 69.8252 35.3025 69.8359 35.3166 69.8492C35.3447 69.8758 35.3839 69.9125 35.4339 69.9587C35.5338 70.0512 35.6769 70.1816 35.8611 70.3447C36.2293 70.6707 36.7626 71.1277 37.4438 71.672C38.804 72.7589 40.7655 74.203 43.1902 75.6478C48.0045 78.5166 54.832 81.5003 62.5 81.5001L62.5 76.5001C56.0878 76.5002 50.1654 73.9839 45.7497 71.3526C43.5594 70.0474 41.7859 68.7414 40.565 67.7658C39.9555 67.2789 39.4866 66.8765 39.1753 66.6009C39.0198 66.4632 38.9038 66.3573 38.8295 66.2886C38.7924 66.2543 38.7657 66.2293 38.7498 66.2142C38.7418 66.2067 38.7365 66.2016 38.7339 66.1992C38.7326 66.1979 38.732 66.1973 38.7321 66.1974C38.7321 66.1975 38.7323 66.1977 38.7327 66.198C38.7329 66.1982 38.7333 66.1986 38.7334 66.1987C38.7339 66.1991 38.7344 66.1996 37 68.0001ZM62.5 81.5001C65.5728 81.5001 69.0642 80.55 72.5821 79.2952C76.133 78.0287 79.9887 76.3451 83.7924 74.7246C87.6392 73.0857 91.4642 71.4971 95.1145 70.3272C98.7809 69.1522 102.107 68.4557 104.961 68.4998L105.039 63.5004C101.393 63.444 97.4691 64.3222 93.5886 65.5658C89.692 66.8145 85.6733 68.4884 81.8326 70.1247C77.9488 71.7793 74.2733 73.3835 70.9023 74.5859C67.4983 75.8 64.6772 76.5001 62.5 76.5001L62.5 81.5001ZM104.961 68.4998C112.949 68.6235 119.346 71.317 125.609 74.3288C131.741 77.2772 138.064 80.7312 145.238 81.4864L145.762 76.5139C139.668 75.8724 134.298 72.9589 127.776 69.8227C121.385 66.7498 114.167 63.6417 105.039 63.5004L104.961 68.4998ZM145.238 81.4864C148.234 81.8018 151.292 80.9419 154.221 79.7368C157.157 78.5291 160.309 76.82 163.456 75.1841C169.912 71.8282 176.683 68.6109 184.038 68.4999L183.962 63.5004C175.292 63.6313 167.563 67.4141 161.15 70.7477C157.863 72.4565 154.988 74.0146 152.319 75.1128C149.643 76.2136 147.516 76.6985 145.762 76.5139L145.238 81.4864ZM184.038 68.4999C190.633 68.4003 195.35 70.419 200.473 72.7366C205.594 75.0537 211.164 77.697 218.903 77.9981L219.097 73.0019C212.46 72.7437 207.722 70.5285 202.534 68.1812C197.347 65.8344 191.752 63.3828 183.962 63.5004L184.038 68.4999ZM218.903 77.9981C226.035 78.2755 234.49 76.2957 240.994 74.3395C244.281 73.3507 247.139 72.3461 249.177 71.5884C250.197 71.2092 251.013 70.891 251.577 70.6664C251.86 70.5541 252.079 70.4651 252.229 70.4036C252.305 70.3728 252.363 70.3488 252.403 70.3323C252.423 70.324 252.438 70.3175 252.449 70.313C252.454 70.3107 252.459 70.3089 252.462 70.3076C252.463 70.3069 252.465 70.3064 252.466 70.3059C252.466 70.3057 252.467 70.3055 252.467 70.3054C252.467 70.3052 252.468 70.3051 251.5 68C250.532 65.6949 250.532 65.6948 250.533 65.6948C250.533 65.6948 250.533 65.6948 250.533 65.6948C250.532 65.6949 250.532 65.6951 250.531 65.6954C250.53 65.696 250.527 65.6971 250.523 65.6987C250.516 65.7018 250.504 65.7069 250.487 65.7137C250.454 65.7275 250.403 65.7485 250.335 65.7763C250.199 65.832 249.995 65.9148 249.729 66.0208C249.196 66.2329 248.415 66.5373 247.434 66.9019C245.471 67.6319 242.716 68.6 239.554 69.5514C233.156 71.4755 225.362 73.2456 219.097 73.0019L218.903 77.9981Z" fill="white"/>
<path d="M12 41.5H15.55C16.6167 41.5 17.3667 41.2833 17.8 40.85C18.2667 40.3833 18.5 39.6167 18.5 38.55V23.3C18.5 22.2333 18.2667 21.4833 17.8 21.05C17.3667 20.5833 16.6167 20.35 15.55 20.35H12C10.9333 20.35 10.1833 20.5833 9.75 21.05C9.31667 21.4833 9.1 22.2333 9.1 23.3V38.55C9.1 39.6167 9.31667 40.3833 9.75 40.85C10.1833 41.2833 10.9333 41.5 12 41.5ZM16.6 47H11C8.36667 47 6.33333 46.3 4.9 44.9C3.46667 43.5 2.75 41.4833 2.75 38.85V23C2.75 20.3667 3.46667 18.35 4.9 16.95C6.33333 15.55 8.36667 14.85 11 14.85H16.6C19.2333 14.85 21.2667 15.55 22.7 16.95C24.1333 18.35 24.85 20.3667 24.85 23V38.85C24.85 41.4833 24.1333 43.5 22.7 44.9C21.2667 46.3 19.2333 47 16.6 47ZM44.0379 47H38.5879C35.9546 47 33.9212 46.3 32.4879 44.9C31.0546 43.5 30.3379 41.4833 30.3379 38.85V23C30.3379 20.3667 31.0546 18.35 32.4879 16.95C33.9212 15.55 35.9546 14.85 38.5879 14.85H44.0379C46.6379 14.85 48.6546 15.5667 50.0879 17C51.5546 18.4 52.2879 20.4 52.2879 23V25.35C52.2879 26.0833 51.9212 26.45 51.1879 26.45H46.9879C46.2879 26.45 45.9379 26.0833 45.9379 25.35V23.3C45.9379 22.2333 45.7046 21.4833 45.2379 21.05C44.8046 20.5833 44.0546 20.35 42.9879 20.35H39.5879C38.5546 20.35 37.8046 20.5833 37.3379 21.05C36.9046 21.4833 36.6879 22.2333 36.6879 23.3V38.55C36.6879 39.6167 36.9046 40.3833 37.3379 40.85C37.8046 41.2833 38.5546 41.5 39.5879 41.5H42.9879C44.0546 41.5 44.8046 41.2833 45.2379 40.85C45.7046 40.3833 45.9379 39.6167 45.9379 38.55V36.5C45.9379 35.7667 46.2879 35.4 46.9879 35.4H51.1879C51.9212 35.4 52.2879 35.7667 52.2879 36.5V38.85C52.2879 41.45 51.5546 43.4667 50.0879 44.9C48.6546 46.3 46.6379 47 44.0379 47ZM75.1422 47H58.7922C58.0922 47 57.7422 46.65 57.7422 45.95V15.9C57.7422 15.2 58.0922 14.85 58.7922 14.85H75.1422C75.8089 14.85 76.1422 15.2 76.1422 15.9V19.3C76.1422 20 75.8089 20.35 75.1422 20.35H64.6922C64.2922 20.35 64.0922 20.5333 64.0922 20.9V27.4C64.0922 27.7667 64.2922 27.95 64.6922 27.95H73.2422C73.9422 27.95 74.2922 28.3 74.2922 29V32.4C74.2922 33.1 73.9422 33.45 73.2422 33.45H64.6922C64.2922 33.45 64.0922 33.6333 64.0922 34V40.95C64.0922 41.3167 64.2922 41.5 64.6922 41.5H75.1422C75.8089 41.5 76.1422 41.85 76.1422 42.55V45.95C76.1422 46.65 75.8089 47 75.1422 47ZM85.018 47H80.218C79.618 47 79.418 46.65 79.618 45.95L87.518 15.9C87.7513 15.2 88.2513 14.85 89.018 14.85H95.668C96.5013 14.85 97.0013 15.2 97.168 15.9L105.068 45.95C105.268 46.65 105.068 47 104.468 47H99.668C99.3013 47 99.0513 46.9333 98.918 46.8C98.7846 46.6333 98.6846 46.35 98.618 45.95L97.218 40.45H87.468L86.068 45.95C86.0013 46.35 85.8846 46.6333 85.718 46.8C85.5846 46.9333 85.3513 47 85.018 47ZM92.268 20.9L88.668 35.35H96.068L92.468 20.9H92.268ZM114.7 47H110.55C109.85 47 109.5 46.65 109.5 45.95V15.9C109.5 15.2 109.85 14.85 110.55 14.85H114.3C115 14.85 115.467 15.0833 115.7 15.55L125.8 34.5H126V15.9C126 15.2 126.35 14.85 127.05 14.85H131.2C131.9 14.85 132.25 15.2 132.25 15.9V45.95C132.25 46.65 131.9 47 131.2 47H127.55C126.817 47 126.283 46.6667 125.95 46L115.95 27.4H115.75V45.95C115.75 46.65 115.4 47 114.7 47Z" fill="#848688"/>
<path d="M180.15 41.7H185.75C186.85 41.7 187.633 41.4833 188.1 41.05C188.6 40.5833 188.85 39.8333 188.85 38.8V35.9C188.85 34.8667 188.6 34.1333 188.1 33.7C187.6 33.2667 186.783 33.05 185.65 33.05H180.15C179.783 33.05 179.6 33.2333 179.6 33.6V41.15C179.6 41.5167 179.783 41.7 180.15 41.7ZM180.15 27.9H185.25C186.317 27.9 187.1 27.6833 187.6 27.25C188.1 26.7833 188.35 26.0333 188.35 25V23.05C188.35 22.0167 188.1 21.2833 187.6 20.85C187.133 20.3833 186.367 20.15 185.3 20.15H180.15C179.783 20.15 179.6 20.3333 179.6 20.7V27.35C179.6 27.7167 179.783 27.9 180.15 27.9ZM173.25 45.95V15.9C173.25 15.2 173.6 14.85 174.3 14.85H186.3C188.933 14.85 190.967 15.55 192.4 16.95C193.833 18.35 194.55 20.35 194.55 22.95V25C194.55 27.8333 193.233 29.6667 190.6 30.5C191.933 30.7 193 31.25 193.8 32.15C194.6 33.0167 195 34.2667 195 35.9V38.9C195 41.5 194.283 43.5 192.85 44.9C191.417 46.3 189.4 47 186.8 47H174.3C173.6 47 173.25 46.65 173.25 45.95ZM218.484 47H202.034C201.334 47 200.984 46.65 200.984 45.95V15.9C200.984 15.2 201.334 14.85 202.034 14.85H206.284C206.984 14.85 207.334 15.2 207.334 15.9V40.9C207.334 41.2667 207.534 41.45 207.934 41.45H218.484C219.151 41.45 219.484 41.8167 219.484 42.55V45.95C219.484 46.65 219.151 47 218.484 47ZM239.895 14.85H244.095C244.829 14.85 245.195 15.1833 245.195 15.85V38.85C245.195 41.45 244.462 43.4667 242.995 44.9C241.562 46.3 239.545 47 236.945 47H231.445C228.812 47 226.779 46.3 225.345 44.9C223.912 43.5 223.195 41.4833 223.195 38.85V15.9C223.195 15.2 223.545 14.85 224.245 14.85H228.495C229.195 14.85 229.545 15.2 229.545 15.9V38.55C229.545 39.6167 229.762 40.3833 230.195 40.85C230.662 41.2833 231.412 41.5 232.445 41.5H235.895C236.962 41.5 237.712 41.2833 238.145 40.85C238.612 40.3833 238.845 39.6167 238.845 38.55V15.9C238.845 15.2 239.195 14.85 239.895 14.85ZM268.824 47H252.474C251.774 47 251.424 46.65 251.424 45.95V15.9C251.424 15.2 251.774 14.85 252.474 14.85H268.824C269.49 14.85 269.824 15.2 269.824 15.9V19.3C269.824 20 269.49 20.35 268.824 20.35H258.374C257.974 20.35 257.774 20.5333 257.774 20.9V27.4C257.774 27.7667 257.974 27.95 258.374 27.95H266.924C267.624 27.95 267.974 28.3 267.974 29V32.4C267.974 33.1 267.624 33.45 266.924 33.45H258.374C257.974 33.45 257.774 33.6333 257.774 34V40.95C257.774 41.3167 257.974 41.5 258.374 41.5H268.824C269.49 41.5 269.824 41.85 269.824 42.55V45.95C269.824 46.65 269.49 47 268.824 47Z" fill="#4D70B5"/>
</svg>
